<?xml version="1.0" encoding="UTF-8"?>
<svg width="32px" height="32px" viewBox="0 0 32 32" version="1.1" xmlns="http://www.w3.org/2000/svg" xmlns:xlink="http://www.w3.org/1999/xlink">
  <title>Group 5</title>
  <desc>Created with Sketch.</desc>
  <g id="Page-1" stroke="none" stroke-width="1" fill="none" fill-rule="evenodd">
    <g id="Group-5">
      <rect id="Rectangle" fill="#999999" fill-rule="nonzero" x="2" y="2" width="28" height="28"></rect>
      <rect id="Rectangle" fill="#FFFFFF" fill-rule="nonzero" x="4" y="4" width="24" height="24"></rect>
      <rect id="Rectangle" fill="#999999" fill-rule="nonzero" x="6" y="10" width="20" height="16"></rect>
      <rect id="Rectangle" fill="#EFEFEF" fill-rule="nonzero" x="8" y="12" width="16" height="12"></rect>
      <polygon id="Path-4" fill="#5599FF" fill-rule="nonzero" points="14.4432245 17 10 22.6434156 21.644371 22.6434156 19.5139972 19.2153892 15.8221855 19.2153892"></polygon>
      <circle id="Oval" fill="#E8A33D" fill-rule="nonzero" cx="19.5" cy="15.5" r="1.5"></circle>
      <rect id="Rectangle" fill="#FFFFFF" fill-rule="nonzero" x="9" y="7" width="9" height="5"></rect>
      <path d="M14.4975962,5.48317308 C15.0360604,5.48317308 15.5360554,5.61778712 15.9975962,5.88701923 C16.4591369,6.15625135 16.8221141,6.52163231 17.0865385,6.98317308 C17.3509629,7.44471385 17.4831731,7.94951649 17.4831731,8.49759615 C17.4831731,9.04567582 17.3509629,9.55047846 17.0865385,10.0120192 C16.8221141,10.47356 16.4591369,10.838941 15.9975962,11.1081731 C15.5360554,11.3774052 15.0360604,11.5120192 14.4975962,11.5120192 L12.0745192,11.5120192 L12.0745192,10.3581731 L14.4975962,10.3581731 C14.8245209,10.3581731 15.1322101,10.2740393 15.4206731,10.1057692 C15.7091361,9.93749916 15.9374992,9.70913606 16.1057692,9.42067308 C16.2740393,9.1322101 16.3581731,8.82452087 16.3581731,8.49759615 C16.3581731,8.17067144 16.2740393,7.86298221 16.1057692,7.57451923 C15.9374992,7.28605625 15.7091361,7.05769315 15.4206731,6.88942308 C15.1322101,6.721153 14.8245209,6.63701923 14.4975962,6.63701923 L12.0745192,6.63701923 L12.0745192,5.48317308 L14.4975962,5.48317308 Z M9.08894231,9.08894231 L9.08894231,7.90625 L13.8774038,7.90625 L13.8774038,9.08894231 L9.08894231,9.08894231 Z M6.60817308,8.49759615 C6.60817308,8.82452087 6.69230685,9.1322101 6.86057692,9.42067308 C7.028847,9.70913606 7.2572101,9.93749916 7.54567308,10.1057692 C7.83413606,10.2740393 8.14182529,10.3581731 8.46875,10.3581731 L10.8918269,10.3581731 L10.8918269,11.5120192 L8.46875,11.5120192 C7.93028577,11.5120192 7.43029077,11.3774052 6.96875,11.1081731 C6.50720923,10.838941 6.14423209,10.47356 5.87980769,10.0120192 C5.61538329,9.55047846 5.48317308,9.04567582 5.48317308,8.49759615 C5.48317308,7.94951649 5.61538329,7.44471385 5.87980769,6.98317308 C6.14423209,6.52163231 6.50720923,6.15625135 6.96875,5.88701923 C7.43029077,5.61778712 7.93028577,5.48317308 8.46875,5.48317308 L10.8918269,5.48317308 L10.8918269,6.63701923 L8.46875,6.63701923 C8.14182529,6.63701923 7.83413606,6.721153 7.54567308,6.88942308 C7.2572101,7.05769315 7.028847,7.28605625 6.86057692,7.57451923 C6.69230685,7.86298221 6.60817308,8.17067144 6.60817308,8.49759615 Z" id="insert_link---material" fill="#000000" transform="translate(11.483173, 8.497596) rotate(-270.000000) translate(-9.483173, -10.497596) "></path>
    </g>
  </g>
</svg>
